<svg xmlns="http://www.w3.org/2000/svg" width="26" height="24.775" viewBox="0 0 26 24.775">
  <g id="Group_20044" data-name="Group 20044" transform="translate(-267.858 -7120.432)">
    <g id="Group_20041" data-name="Group 20041" transform="translate(273.079 7120.944) rotate(90)">
      <g id="Group_20039" data-name="Group 20039" transform="translate(0 4.276) rotate(-90)">
        <path id="Path_16309" data-name="Path 16309" d="M0,4.094A5.74,5.74,0,0,1,1.288.335c.04-.05.083-.1.125-.146.131-.149.287-.264.5-.129s.13.289.016.449a7.833,7.833,0,0,0-.7,1.04,5.056,5.056,0,0,0,.666,5.78c.136.171.264.346.015.5S1.5,7.8,1.369,7.639A5.538,5.538,0,0,1,0,4.094Z" fill="#707070" stroke="#ff9b40" stroke-width="1"/>
        <path id="Path_16310" data-name="Path 16310" d="M.71,0c.351,0,.468.258.306.54A2.471,2.471,0,0,0,.672,2.3a4.811,4.811,0,0,0,.351.952c.085.193.14.372-.069.492S.584,3.769.466,3.56A3.182,3.182,0,0,1,.47.237,1.056,1.056,0,0,1,.71,0Z" transform="translate(3.177 2.04)" fill="#707070" stroke="#ff9b40" stroke-width="1"/>
      </g>
    </g>
    <g id="Rectangle_18278" data-name="Rectangle 18278" transform="translate(267.858 7131.207)" fill="#8d0000" stroke="#8d0000" stroke-width="2">
      <rect width="26" height="14" rx="4" stroke="none"/>
      <rect x="1" y="1" width="24" height="12" rx="3" fill="none"/>
    </g>
    <g id="Ellipse_403" data-name="Ellipse 403" transform="translate(271.858 7136.207)" fill="#ff9b40" stroke="#ff9b40" stroke-width="1">
      <circle cx="2" cy="2" r="2" stroke="none"/>
      <circle cx="2" cy="2" r="1.5" fill="none"/>
    </g>
    <g id="Ellipse_404" data-name="Ellipse 404" transform="translate(277.858 7136.207)" fill="#ff9b40" stroke="#ff9b40" stroke-width="1">
      <circle cx="2" cy="2" r="2" stroke="none"/>
      <circle cx="2" cy="2" r="1.5" fill="none"/>
    </g>
    <g id="Ellipse_405" data-name="Ellipse 405" transform="translate(284.858 7136.207)" fill="#ff9b40" stroke="#ff9b40" stroke-width="1">
      <circle cx="2" cy="2" r="2" stroke="none"/>
      <circle cx="2" cy="2" r="1.5" fill="none"/>
    </g>
    <line id="Line_383" data-name="Line 383" y2="5.016" transform="translate(276.54 7127.865)" fill="none" stroke="#8d0000" stroke-width="2"/>
    <g id="Group_20045" data-name="Group 20045" transform="translate(279.254 7128.828) rotate(-90)">
      <g id="Group_20039-2" data-name="Group 20039" transform="translate(0 4.276) rotate(-90)">
        <path id="Path_16309-2" data-name="Path 16309" d="M0,4.094A5.74,5.74,0,0,1,1.288.335c.04-.05.083-.1.125-.146.131-.149.287-.264.5-.129s.13.289.016.449a7.833,7.833,0,0,0-.7,1.04,5.056,5.056,0,0,0,.666,5.78c.136.171.264.346.015.5S1.5,7.8,1.369,7.639A5.538,5.538,0,0,1,0,4.094Z" fill="#707070" stroke="#ff9b40" stroke-width="1"/>
        <path id="Path_16310-2" data-name="Path 16310" d="M.71,0c.351,0,.468.258.306.54A2.471,2.471,0,0,0,.672,2.3a4.811,4.811,0,0,0,.351.952c.085.193.14.372-.069.492S.584,3.769.466,3.56A3.182,3.182,0,0,1,.47.237,1.056,1.056,0,0,1,.71,0Z" transform="translate(3.177 2.04)" fill="#707070" stroke="#ff9b40" stroke-width="1"/>
      </g>
    </g>
  </g>
</svg>
