<svg xmlns="http://www.w3.org/2000/svg" width="13.614" height="18.588" viewBox="0 0 13.614 18.588">
  <g id="sim-card" transform="translate(-68.5)">
    <path id="Path_16295" data-name="Path 16295" d="M81.73,5.726V7.989h.112a.272.272,0,0,1,.272.272v9.294a1.033,1.033,0,0,1-1.032,1.032H69.532A1.033,1.033,0,0,1,68.5,17.556V8.262a.272.272,0,0,1,.272-.272h.112V5.726h-.112a.272.272,0,0,1-.272-.272V1.032A1.033,1.033,0,0,1,69.532,0h8.942a.273.273,0,0,1,.193.08l3.367,3.367a.273.273,0,0,1,.08.193V5.454a.272.272,0,0,1-.272.272Z" fill="#8d0000"/>
    <g id="Group_20031" data-name="Group 20031" transform="translate(70.139 1.613)">
      <path id="Path_16297" data-name="Path 16297" d="M113.931,44.418a.272.272,0,0,0-.272.272v4.033a.272.272,0,0,0,.545,0V44.69A.272.272,0,0,0,113.931,44.418Z" transform="translate(-113.659 -44.418)" fill="#fff"/>
      <path id="Path_16298" data-name="Path 16298" d="M232.77,44.418a.272.272,0,0,0-.272.272v2.187a.272.272,0,0,0,.545,0V44.69A.272.272,0,0,0,232.77,44.418Z" transform="translate(-228.184 -44.418)" fill="#fff"/>
      <path id="Path_16299" data-name="Path 16299" d="M232.77,139.128a.272.272,0,0,0-.272.272V140a.272.272,0,1,0,.545,0V139.4A.272.272,0,0,0,232.77,139.128Z" transform="translate(-228.184 -135.69)" fill="#fff"/>
      <path id="Path_16300" data-name="Path 16300" d="M153.3,44.418a.272.272,0,0,0-.272.272V48a.272.272,0,0,0,.545,0V44.69A.272.272,0,0,0,153.3,44.418Z" transform="translate(-151.597 -44.418)" fill="#fff"/>
      <path id="Path_16301" data-name="Path 16301" d="M271.77,44.418a.272.272,0,0,0-.272.272V48a.272.272,0,1,0,.545,0V44.69A.272.272,0,0,0,271.77,44.418Z" transform="translate(-265.768 -44.418)" fill="#fff"/>
      <path id="Path_16302" data-name="Path 16302" d="M192.627,44.418a.272.272,0,0,0-.272.272v4.033a.272.272,0,0,0,.545,0V44.69A.272.272,0,0,0,192.627,44.418Z" transform="translate(-189.498 -44.418)" fill="#fff"/>
    </g>
    <path id="Path_16303" data-name="Path 16303" d="M121.16,234.79h7.685v8.356H121.16Z" transform="translate(-50.748 -226.266)" fill="#ffec61"/>
    <path id="Path_16304" data-name="Path 16304" d="M304.34,234.79h1.035v8.356H304.34Z" transform="translate(-227.278 -226.266)" fill="#ffc83e"/>
    <g id="Group_20032" data-name="Group 20032" transform="translate(70.139 8.252)">
      <path id="Path_16305" data-name="Path 16305" d="M121.617,227.29h-7.685a.272.272,0,0,0-.272.272v8.356a.272.272,0,0,0,.272.272h7.685a.272.272,0,0,0,.272-.272v-8.356A.272.272,0,0,0,121.617,227.29Zm-4.841.545h2v2.218h-2Zm-2.572,0h2.027v2.218h-.884a1.681,1.681,0,0,0-1.144.448Zm2.027,7.812H114.2v-2.665a1.683,1.683,0,0,0,1.144.447h.884Zm2.541,0h-2v-2.218h2Zm2.572,0h-2.027v-2.218h.884a1.669,1.669,0,0,0,.381-.044,1.686,1.686,0,0,0,.762-.4Zm-.762-2.828a1.135,1.135,0,0,1-.381.065h-4.853a1.144,1.144,0,0,1,0-2.287H120.2a1.144,1.144,0,0,1,.381,2.222Zm.762-2.319a1.687,1.687,0,0,0-.762-.4,1.669,1.669,0,0,0-.381-.044h-.884v-2.218h2.027Z" transform="translate(-113.66 -227.29)" fill="#ffc83e"/>
    </g>
    <path id="Path_16306" data-name="Path 16306" d="M298.419,227.562v8.356a.272.272,0,0,1-.272.272H296.84a.272.272,0,0,0,.272-.272v-.272h.762v-2.665a1.686,1.686,0,0,1-.762.4v-.566a1.144,1.144,0,0,0,0-2.156V230.1a1.686,1.686,0,0,1,.762.4v-2.665h-.762v-.272a.272.272,0,0,0-.272-.272h1.307A.272.272,0,0,1,298.419,227.562Z" transform="translate(-220.05 -219.038)" fill="#ff9b40"/>
  </g>
</svg>
